<svg xmlns="http://www.w3.org/2000/svg" version="1.1" xmlnsXlink="http://www.w3.org/1999/xlink" xmlnssvgjs="http://svgjs.dev/svgjs" width="150" height="100" viewBox="0 0 2000 1444"><g transform="matrix(1,0,0,1,-1.2121212121212466,-1.1160047907962962)"><svg viewBox="0 0 396 286" data-background-color="#191552" preserveAspectRatio="xMidYMid meet" height="1444" width="2000" xmlns="http://www.w3.org/2000/svg" xmlnsXlink="http://www.w3.org/1999/xlink"><g id="tight-bounds" transform="matrix(1,0,0,1,0.2400000000000091,0.22103695994996997)"><svg viewBox="0 0 395.52 285.55792608010006" height="285.55792608010006" width="395.52"><g><svg viewBox="0 0 395.52 285.55792608010006" height="285.55792608010006" width="395.52"><g transform="matrix(1,0,0,1,0,145.41078619376125)"><svg viewBox="0 0 395.52 140.1471398863388" height="140.1471398863388" width="395.52"><g id="textblocktransform"><svg viewBox="0 0 395.52 140.1471398863388" height="140.1471398863388" width="395.52" id="textblock"><g><svg viewBox="0 0 395.52 73.16724062438806" height="73.16724062438806" width="395.52"><g transform="matrix(1,0,0,1,0,0)"><svg width="395.52" viewBox="0.7559499999999995 -20.233510000000003 275.92079 51.042570602304" height="73.16724062438806" data-palette-color="url(#8a23e112-43fa-4e14-8aa0-9208bfa5ddfa)"></svg></g></svg></g><g transform="matrix(1,0,0,1,124.68625110211829,99.48547216150033)"><svg viewBox="0 0 146.1474977957634 40.661667724838466" height="40.661667724838466" width="146.1474977957634"><g transform="matrix(1,0,0,1,0,0)"><svg width="146.1474977957634" viewBox="3 -37.7 174.48 48.550000000000004" height="40.661667724838466" data-palette-color="#ffffff"><path d="M3-34.55L9.35-34.55 9.35 0 3 0 3-34.55ZM29.4-18.3Q32.75-17.55 34.67-15.63 36.6-13.7 36.6-9.9L36.6-9.9Q36.6-4.9 33.22-2.45 29.85 0 24.05 0L24.05 0 15.35 0 15.35-34.55 22.9-34.55Q28.85-34.55 32.1-32.3 35.35-30.05 35.35-25.75L35.35-25.75Q35.35-22.85 33.72-20.95 32.1-19.05 29.4-18.3L29.4-18.3ZM23.55-29.85L21.7-29.85 21.7-20.3 23.85-20.3Q28.9-20.3 28.9-25.2L28.9-25.2Q28.9-27.65 27.62-28.75 26.35-29.85 23.55-29.85L23.55-29.85ZM24.1-4.8Q27-4.8 28.5-6.03 30-7.25 30-10.15L30-10.15Q30-13.05 28.6-14.43 27.2-15.8 24.25-15.8L24.25-15.8 21.7-15.8 21.7-4.8 24.1-4.8ZM66.25-34.55L72.15-34.55 67.3 0 58.95 0 55.25-27.8 51.4 0 43.2 0 38.45-34.55 44.6-34.55 47.8-5.1 51.95-34.55 58.7-34.55 62.75-5.1 66.25-34.55ZM94.44-35.25Q97.44-35.25 99.74-34.2 102.04-33.15 103.99-31.05L103.99-31.05 101.04-27.65Q99.49-29.05 98.02-29.75 96.54-30.45 94.89-30.45L94.89-30.45Q92.99-30.45 91.89-29.28 90.79-28.1 90.79-26.2L90.79-26.2Q90.79-24.3 91.94-23.1 93.09-21.9 96.44-20.6L96.44-20.6Q100.74-18.85 102.77-16.5 104.79-14.15 104.79-9.85L104.79-9.85Q104.79-6.9 103.44-4.48 102.09-2.05 99.56-0.65 97.04 0.75 93.69 0.75L93.69 0.75Q90.24 0.75 87.69-0.48 85.14-1.7 83.04-3.95L83.04-3.95 86.24-7.45Q88.04-5.85 89.69-5 91.34-4.15 93.29-4.15L93.29-4.15Q95.59-4.15 96.86-5.58 98.14-7 98.14-9.45L98.14-9.45Q98.14-11.6 97.02-12.98 95.89-14.35 92.84-15.5L92.84-15.5Q88.24-17.35 86.22-19.75 84.19-22.15 84.19-25.75L84.19-25.75Q84.19-28.5 85.52-30.65 86.84-32.8 89.19-34.02 91.54-35.25 94.44-35.25L94.44-35.25ZM119.94-5L122.09-1.2Q119.64 0.75 116.34 0.75L116.34 0.75Q112.89 0.75 111.09-1.23 109.29-3.2 109.29-6.6L109.29-6.6 109.29-22 106.19-22 106.19-26.45 109.29-26.45 109.29-32.3 115.44-33.05 115.44-26.45 120.44-26.45 119.84-22 115.44-22 115.44-6.6Q115.44-4.2 117.49-4.2L117.49-4.2Q118.14-4.2 118.64-4.38 119.14-4.55 119.94-5L119.94-5ZM143.28-26.45L136.28 0.1Q134.98 4.9 132.09 7.65 129.19 10.4 124.33 10.85L124.33 10.85 123.63 6.5Q126.78 5.85 128.36 4.42 129.94 3 130.84 0L130.84 0 128.53 0 121.83-26.45 128.09-26.45 132.48-4.1 137.19-26.45 143.28-26.45ZM151.78 0.75Q149.08 0.75 147.51-0.93 145.93-2.6 145.93-5.4L145.93-5.4 145.93-37.05 152.08-37.7 152.08-5.65Q152.08-5 152.38-4.6 152.68-4.2 153.28-4.2L153.28-4.2Q153.63-4.2 153.96-4.3 154.28-4.4 154.38-4.4L154.38-4.4 155.58-0.2Q153.88 0.75 151.78 0.75L151.78 0.75ZM177.48-13.85Q177.48-13.4 177.33-11.3L177.33-11.3 163.68-11.3Q163.88-7.2 165.1-5.58 166.33-3.95 168.58-3.95L168.58-3.95Q170.13-3.95 171.38-4.48 172.63-5 174.08-6.15L174.08-6.15 176.63-2.65Q173.13 0.75 168.23 0.75L168.23 0.75Q163.03 0.75 160.25-2.85 157.48-6.45 157.48-13L157.48-13Q157.48-19.55 160.13-23.35 162.78-27.15 167.63-27.15L167.63-27.15Q172.28-27.15 174.88-23.78 177.48-20.4 177.48-13.85L177.48-13.85ZM171.48-15.3L171.48-15.65Q171.48-19.4 170.58-21.13 169.68-22.85 167.68-22.85L167.68-22.85Q165.83-22.85 164.85-21.18 163.88-19.5 163.68-15.3L163.68-15.3 171.48-15.3Z" opacity="1" transform="matrix(1,0,0,1,0,0)" fill="#ffffff" class="slogan-text-1" data-fill-palette-color="secondary" id="text-1"></path></svg></g></svg></g></svg></g></svg></g><g transform="matrix(1,0,0,1,157.10426295775522,0)"><svg viewBox="0 0 81.3114740844895 140.1471398863388" height="140.1471398863388" width="81.3114740844895"><g><svg xmlns="http://www.w3.org/2000/svg" xmlnsXlink="http://www.w3.org/1999/xlink" version="1.1" x="0" y="0" viewBox="21.679106830508616 1 56.85827385947762 98" enable-background="new 0 0 100 100" xmlSpace="preserve" height="140.1471398863388" width="81.3114740844895" class="icon-icon-0" data-fill-palette-color="accent" id="icon-0"></svg></g></svg></g><g></g></svg></g><defs></defs><mask id="f793f2ed-3b7a-4648-99c5-c9db633846ed"><g id="SvgjsG4558"><svg viewBox="0 0 395.52 285.55792608010006" height="285.55792608010006" width="395.52"><g><svg viewBox="0 0 395.52 285.55792608010006" height="285.55792608010006" width="395.52"><g transform="matrix(1,0,0,1,0,145.41078619376125)"><svg viewBox="0 0 395.52 140.1471398863388" height="140.1471398863388" width="395.52"><g id="SvgjsG4557"><svg viewBox="0 0 395.52 140.1471398863388" height="140.1471398863388" width="395.52" id="SvgjsSvg4556"><g><svg viewBox="0 0 395.52 73.16724062438806" height="73.16724062438806" width="395.52"><g transform="matrix(1,0,0,1,0,0)"><svg width="395.52" viewBox="0.7559499999999995 -20.233510000000003 275.92079 51.042570602304" height="73.16724062438806" data-palette-color="url(#8a23e112-43fa-4e14-8aa0-9208bfa5ddfa)"><path d="M5.029 14.578l-4.273-1.13 8.91-33.682 4.273 1.131zM41.752 13.468v0c-0.382 1.759-1.162 3.196-2.339 4.312-1.177 1.116-2.604 1.877-4.282 2.283-1.684 0.405-3.435 0.41-5.253 0.015v0l-16.163-3.511 7.396-34.046 16.925 3.677c1.603 0.348 2.895 1.072 3.877 2.173 0.982 1.1 1.642 2.383 1.979 3.847 0.332 1.457 0.341 2.905 0.028 4.345v0c-0.361 1.661-1.123 3.13-2.287 4.405-1.163 1.269-2.602 2.085-4.319 2.449v0c1.823 0.996 3.133 2.393 3.93 4.19 0.797 1.797 0.966 3.751 0.508 5.861zM37.559 11.759v0c0.229-1.055 0.21-2.083-0.057-3.082-0.269-0.993-0.738-1.849-1.407-2.567-0.664-0.711-1.508-1.177-2.531-1.399v0l-12.176-2.645-2.541 11.697 11.844 2.573c1.055 0.229 2.065 0.166 3.03-0.192 0.966-0.363 1.792-0.931 2.478-1.702 0.685-0.765 1.138-1.66 1.36-2.683zM35.738-10.382l-11.121-2.416-2.469 11.365 10.837 2.354c1.023 0.222 1.981 0.161 2.875-0.184 0.892-0.338 1.664-0.89 2.314-1.656 0.649-0.759 1.085-1.651 1.308-2.673v0c0.236-1.088 0.232-2.102-0.015-3.043-0.246-0.94-0.688-1.749-1.325-2.426-0.645-0.672-1.447-1.112-2.404-1.321zM67.193 6.192l-3.983-15.821 4.134 0.548 2.975 12.621 6.214-11.401 4.144 0.55-7.982 14.233 4.046 15.043 15.581-27.933 4.768 0.633-19.027 32.621-3.797-0.504-4.697-17.208-9.072 15.38-3.787-0.502-9.82-36.449 4.719 0.626 7.814 31.038zM121.004 30.681l-12.062-0.435 1.256-34.817 12.062 0.435c3.731 0.135 6.818 1.023 9.26 2.665 2.442 1.642 4.239 3.802 5.39 6.479 1.144 2.676 1.659 5.617 1.543 8.821v0c-0.127 3.531-0.924 6.581-2.391 9.15-1.467 2.562-3.485 4.517-6.056 5.865-2.57 1.348-5.571 1.96-9.002 1.837zM133.996 13.668v0c0.094-2.612-0.305-4.951-1.198-7.018-0.893-2.06-2.235-3.696-4.026-4.908-1.784-1.205-4.002-1.855-6.654-1.951v0l-7.645-0.276-0.972 26.963 7.645 0.276c2.685 0.097 4.962-0.418 6.83-1.545 1.875-1.126 3.323-2.692 4.342-4.697 1.026-2.011 1.586-4.292 1.678-6.844zM159.073 30.799v0c-2.452 0.082-4.691-0.337-6.716-1.257-2.025-0.913-3.795-2.188-5.31-3.825-1.508-1.631-2.691-3.489-3.547-5.575-0.856-2.079-1.322-4.232-1.396-6.458v0c-0.077-2.319 0.269-4.548 1.038-6.688 0.763-2.133 1.86-4.051 3.29-5.752 1.431-1.702 3.13-3.069 5.096-4.102 1.96-1.032 4.116-1.588 6.469-1.667v0c2.452-0.082 4.691 0.354 6.717 1.307 2.033 0.946 3.797 2.245 5.292 3.896 1.496 1.651 2.668 3.51 3.518 5.576 0.856 2.066 1.32 4.195 1.393 6.388v0c0.077 2.319-0.259 4.548-1.008 6.687-0.743 2.133-1.83 4.05-3.26 5.752-1.437 1.702-3.137 3.059-5.097 4.071-1.96 1.019-4.12 1.568-6.479 1.647zM146.571 13.536v0c0.059 1.766 0.402 3.465 1.031 5.098 0.628 1.633 1.486 3.069 2.574 4.307 1.088 1.238 2.382 2.209 3.88 2.912 1.491 0.704 3.136 1.026 4.934 0.967v0c1.866-0.062 3.522-0.511 4.968-1.347 1.447-0.829 2.661-1.916 3.644-3.263 0.989-1.34 1.727-2.836 2.212-4.486 0.485-1.657 0.7-3.318 0.644-4.984v0c-0.059-1.766-0.402-3.455-1.029-5.068-0.628-1.62-1.496-3.059-2.605-4.316-1.102-1.251-2.392-2.222-3.869-2.913-1.484-0.684-3.108-0.997-4.874-0.938v0c-1.859 0.062-3.512 0.501-4.959 1.316-1.447 0.815-2.665 1.896-3.654 3.243-0.983 1.34-1.727 2.829-2.233 4.467-0.499 1.638-0.72 3.306-0.664 5.005zM155.681-9.16l-3.628 0.121-0.167-4.998 3.628-0.12zM163.627-9.425l-3.628 0.121-0.167-4.997 3.628-0.121zM207.729 26.832l-23.528-24.49 2.63 26.56-4.398 0.436-3.434-34.671 3.711-0.367 23.881 24.997-2.679-27.047 4.388-0.435 3.43 34.621zM224.507 20.343l18.972-3.139 0.641 3.878-23.333 3.86-5.686-34.373 22.898-3.788 0.642 3.877-18.538 3.067 1.841 11.129 16.121-2.668 0.601 3.631-16.121 2.667zM255.042 18.576l-4.311 0.974-7.679-33.983 14.554-3.289c1.496-0.338 2.938-0.336 4.327 0.007 1.382 0.337 2.655 0.921 3.82 1.751 1.157 0.825 2.135 1.828 2.935 3.007 0.806 1.178 1.36 2.437 1.663 3.776v0c0.353 1.561 0.392 3.11 0.118 4.649-0.274 1.538-0.833 2.922-1.677 4.151-0.843 1.229-1.94 2.198-3.29 2.907v0l11.175 11.162-4.887 1.104-10.512-10.451-8.993 2.032zM248.23-11.574l3.189 14.114 10.291-2.325c1.177-0.266 2.131-0.823 2.861-1.672 0.729-0.855 1.219-1.881 1.468-3.079 0.249-1.198 0.233-2.417-0.048-3.659v0c-0.288-1.275-0.839-2.384-1.654-3.328-0.813-0.937-1.757-1.619-2.83-2.046-1.067-0.429-2.16-0.517-3.279-0.264v0z" opacity="1" transform="matrix(1,0,0,1,0,0)" fill="white" class="wordmark-text-0" id="SvgjsPath4555"></path></svg></g></svg></g><g transform="matrix(1,0,0,1,124.68625110211829,99.48547216150033)"><svg viewBox="0 0 146.1474977957634 40.661667724838466" height="40.661667724838466" width="146.1474977957634"><g transform="matrix(1,0,0,1,0,0)"><svg width="146.1474977957634" viewBox="3 -37.7 174.48 48.550000000000004" height="40.661667724838466" data-palette-color="#ffffff"><path d="M3-34.55L9.35-34.55 9.35 0 3 0 3-34.55ZM29.4-18.3Q32.75-17.55 34.67-15.63 36.6-13.7 36.6-9.9L36.6-9.9Q36.6-4.9 33.22-2.45 29.85 0 24.05 0L24.05 0 15.35 0 15.35-34.55 22.9-34.55Q28.85-34.55 32.1-32.3 35.35-30.05 35.35-25.75L35.35-25.75Q35.35-22.85 33.72-20.95 32.1-19.05 29.4-18.3L29.4-18.3ZM23.55-29.85L21.7-29.85 21.7-20.3 23.85-20.3Q28.9-20.3 28.9-25.2L28.9-25.2Q28.9-27.65 27.62-28.75 26.35-29.85 23.55-29.85L23.55-29.85ZM24.1-4.8Q27-4.8 28.5-6.03 30-7.25 30-10.15L30-10.15Q30-13.05 28.6-14.43 27.2-15.8 24.25-15.8L24.25-15.8 21.7-15.8 21.7-4.8 24.1-4.8ZM66.25-34.55L72.15-34.55 67.3 0 58.95 0 55.25-27.8 51.4 0 43.2 0 38.45-34.55 44.6-34.55 47.8-5.1 51.95-34.55 58.7-34.55 62.75-5.1 66.25-34.55ZM94.44-35.25Q97.44-35.25 99.74-34.2 102.04-33.15 103.99-31.05L103.99-31.05 101.04-27.65Q99.49-29.05 98.02-29.75 96.54-30.45 94.89-30.45L94.89-30.45Q92.99-30.45 91.89-29.28 90.79-28.1 90.79-26.2L90.79-26.2Q90.79-24.3 91.94-23.1 93.09-21.9 96.44-20.6L96.44-20.6Q100.74-18.85 102.77-16.5 104.79-14.15 104.79-9.85L104.79-9.85Q104.79-6.9 103.44-4.48 102.09-2.05 99.56-0.65 97.04 0.75 93.69 0.75L93.69 0.75Q90.24 0.75 87.69-0.48 85.14-1.7 83.04-3.95L83.04-3.95 86.24-7.45Q88.04-5.85 89.69-5 91.34-4.15 93.29-4.15L93.29-4.15Q95.59-4.15 96.86-5.58 98.14-7 98.14-9.45L98.14-9.45Q98.14-11.6 97.02-12.98 95.89-14.35 92.84-15.5L92.84-15.5Q88.24-17.35 86.22-19.75 84.19-22.15 84.19-25.75L84.19-25.75Q84.19-28.5 85.52-30.65 86.84-32.8 89.19-34.02 91.54-35.25 94.44-35.25L94.44-35.25ZM119.94-5L122.09-1.2Q119.64 0.75 116.34 0.75L116.34 0.75Q112.89 0.75 111.09-1.23 109.29-3.2 109.29-6.6L109.29-6.6 109.29-22 106.19-22 106.19-26.45 109.29-26.45 109.29-32.3 115.44-33.05 115.44-26.45 120.44-26.45 119.84-22 115.44-22 115.44-6.6Q115.44-4.2 117.49-4.2L117.49-4.2Q118.14-4.2 118.64-4.38 119.14-4.55 119.94-5L119.94-5ZM143.28-26.45L136.28 0.1Q134.98 4.9 132.09 7.65 129.19 10.4 124.33 10.85L124.33 10.85 123.63 6.5Q126.78 5.85 128.36 4.42 129.94 3 130.84 0L130.84 0 128.53 0 121.83-26.45 128.09-26.45 132.48-4.1 137.19-26.45 143.28-26.45ZM151.78 0.75Q149.08 0.75 147.51-0.93 145.93-2.6 145.93-5.4L145.93-5.4 145.93-37.05 152.08-37.7 152.08-5.65Q152.08-5 152.38-4.6 152.68-4.2 153.28-4.2L153.28-4.2Q153.63-4.2 153.96-4.3 154.28-4.4 154.38-4.4L154.38-4.4 155.58-0.2Q153.88 0.75 151.78 0.75L151.78 0.75ZM177.48-13.85Q177.48-13.4 177.33-11.3L177.33-11.3 163.68-11.3Q163.88-7.2 165.1-5.58 166.33-3.95 168.58-3.95L168.58-3.95Q170.13-3.95 171.38-4.48 172.63-5 174.08-6.15L174.08-6.15 176.63-2.65Q173.13 0.75 168.23 0.75L168.23 0.75Q163.03 0.75 160.25-2.85 157.48-6.45 157.48-13L157.48-13Q157.48-19.55 160.13-23.35 162.78-27.15 167.63-27.15L167.63-27.15Q172.28-27.15 174.88-23.78 177.48-20.4 177.48-13.85L177.48-13.85ZM171.48-15.3L171.48-15.65Q171.48-19.4 170.58-21.13 169.68-22.85 167.68-22.85L167.68-22.85Q165.83-22.85 164.85-21.18 163.88-19.5 163.68-15.3L163.68-15.3 171.48-15.3Z" opacity="1" transform="matrix(1,0,0,1,0,0)" fill="black" class="slogan-text-1" id="SvgjsPath4554"></path></svg></g></svg></g></svg></g></svg></g><g transform="matrix(1,0,0,1,157.10426295775522,0)"><svg viewBox="0 0 81.3114740844895 140.1471398863388" height="140.1471398863388" width="81.3114740844895"><g><svg xmlns="http://www.w3.org/2000/svg" xmlnsXlink="http://www.w3.org/1999/xlink" version="1.1" x="0" y="0" viewBox="21.679106830508616 1 56.85827385947762 98" enable-background="new 0 0 100 100" xmlSpace="preserve" height="140.1471398863388" width="81.3114740844895" class="icon-icon-0" data-fill-palette-color="accent" id="SvgjsSvg4553"><g fill="black"><path fill-rule="evenodd" clip-rule="evenodd" d="M30.545 28.822C29.38 36.039 30.875 43.672 37.045 47.863 30.758 19.81 45.756 8.664 59.646 1 43.466 24.046 76.542 24.644 78.423 51.13 80.028 73.71 64.507 91.317 46.639 99 46.845 76.175 24.089 73.067 21.801 54.397 20.905 47.094 25.062 33.766 30.545 28.822" fill="black"></path></g></svg></g></svg></g><g></g></svg></g><defs><mask></mask></defs></svg><rect width="395.52" height="285.55792608010006" fill="black" stroke="none" visibility="hidden"></rect></g></mask><linearGradient x1="0" x2="1" y1="0.578" y2="0.595" id="8a23e112-43fa-4e14-8aa0-9208bfa5ddfa"><stop stop-color="#6ee2f5" offset="0"></stop><stop stop-color="#6454f0" offset="1"></stop></linearGradient><rect width="395.52" height="285.55792608010006" fill="url(#8a23e112-43fa-4e14-8aa0-9208bfa5ddfa)" mask="url(#f793f2ed-3b7a-4648-99c5-c9db633846ed)" data-fill-palette-color="primary"></rect><mask id="37d48b3a-59a1-4aad-96ab-999ee7ac7815"><g id="SvgjsG4569"><svg viewBox="0 0 395.52 285.55792608010006" height="285.55792608010006" width="395.52"><g><svg viewBox="0 0 395.52 285.55792608010006" height="285.55792608010006" width="395.52"><g transform="matrix(1,0,0,1,0,145.41078619376125)"><svg viewBox="0 0 395.52 140.1471398863388" height="140.1471398863388" width="395.52"><g id="SvgjsG4568"><svg viewBox="0 0 395.52 140.1471398863388" height="140.1471398863388" width="395.52" id="SvgjsSvg4567"><g><svg viewBox="0 0 395.52 73.16724062438806" height="73.16724062438806" width="395.52"><g transform="matrix(1,0,0,1,0,0)"><svg width="395.52" viewBox="0.7559499999999995 -20.233510000000003 275.92079 51.042570602304" height="73.16724062438806" data-palette-color="url(#8a23e112-43fa-4e14-8aa0-9208bfa5ddfa)"></svg></g></svg></g><g transform="matrix(1,0,0,1,124.68625110211829,99.48547216150033)"><svg viewBox="0 0 146.1474977957634 40.661667724838466" height="40.661667724838466" width="146.1474977957634"><g transform="matrix(1,0,0,1,0,0)"><svg width="146.1474977957634" viewBox="3 -37.7 174.48 48.550000000000004" height="40.661667724838466" data-palette-color="#ffffff"><path d="M3-34.55L9.35-34.55 9.35 0 3 0 3-34.55ZM29.4-18.3Q32.75-17.55 34.67-15.63 36.6-13.7 36.6-9.9L36.6-9.9Q36.6-4.9 33.22-2.45 29.85 0 24.05 0L24.05 0 15.35 0 15.35-34.55 22.9-34.55Q28.85-34.55 32.1-32.3 35.35-30.05 35.35-25.75L35.35-25.75Q35.35-22.85 33.72-20.95 32.1-19.05 29.4-18.3L29.4-18.3ZM23.55-29.85L21.7-29.85 21.7-20.3 23.85-20.3Q28.9-20.3 28.9-25.2L28.9-25.2Q28.9-27.65 27.62-28.75 26.35-29.85 23.55-29.85L23.55-29.85ZM24.1-4.8Q27-4.8 28.5-6.03 30-7.25 30-10.15L30-10.15Q30-13.05 28.6-14.43 27.2-15.8 24.25-15.8L24.25-15.8 21.7-15.8 21.7-4.8 24.1-4.8ZM66.25-34.55L72.15-34.55 67.3 0 58.95 0 55.25-27.8 51.4 0 43.2 0 38.45-34.55 44.6-34.55 47.8-5.1 51.95-34.55 58.7-34.55 62.75-5.1 66.25-34.55ZM94.44-35.25Q97.44-35.25 99.74-34.2 102.04-33.15 103.99-31.05L103.99-31.05 101.04-27.65Q99.49-29.05 98.02-29.75 96.54-30.45 94.89-30.45L94.89-30.45Q92.99-30.45 91.89-29.28 90.79-28.1 90.79-26.2L90.79-26.2Q90.79-24.3 91.94-23.1 93.09-21.9 96.44-20.6L96.44-20.6Q100.74-18.85 102.77-16.5 104.79-14.15 104.79-9.85L104.79-9.85Q104.79-6.9 103.44-4.48 102.09-2.05 99.56-0.65 97.04 0.75 93.69 0.75L93.69 0.75Q90.24 0.75 87.69-0.48 85.14-1.7 83.04-3.95L83.04-3.95 86.24-7.45Q88.04-5.85 89.69-5 91.34-4.15 93.29-4.15L93.29-4.15Q95.59-4.15 96.86-5.58 98.14-7 98.14-9.45L98.14-9.45Q98.14-11.6 97.02-12.98 95.89-14.35 92.84-15.5L92.84-15.5Q88.24-17.35 86.22-19.75 84.19-22.15 84.19-25.75L84.19-25.75Q84.19-28.5 85.52-30.65 86.84-32.8 89.19-34.02 91.54-35.25 94.44-35.25L94.44-35.25ZM119.94-5L122.09-1.2Q119.64 0.75 116.34 0.75L116.34 0.75Q112.89 0.75 111.09-1.23 109.29-3.2 109.29-6.6L109.29-6.6 109.29-22 106.19-22 106.19-26.45 109.29-26.45 109.29-32.3 115.44-33.05 115.44-26.45 120.44-26.45 119.84-22 115.44-22 115.44-6.6Q115.44-4.2 117.49-4.2L117.49-4.2Q118.14-4.2 118.64-4.38 119.14-4.55 119.94-5L119.94-5ZM143.28-26.45L136.28 0.1Q134.98 4.9 132.09 7.65 129.19 10.4 124.33 10.85L124.33 10.85 123.63 6.5Q126.78 5.85 128.36 4.42 129.94 3 130.84 0L130.84 0 128.53 0 121.83-26.45 128.09-26.45 132.48-4.1 137.19-26.45 143.28-26.45ZM151.78 0.75Q149.08 0.75 147.51-0.93 145.93-2.6 145.93-5.4L145.93-5.4 145.93-37.05 152.08-37.7 152.08-5.65Q152.08-5 152.38-4.6 152.68-4.2 153.28-4.2L153.28-4.2Q153.63-4.2 153.96-4.3 154.28-4.4 154.38-4.4L154.38-4.4 155.58-0.2Q153.88 0.75 151.78 0.75L151.78 0.75ZM177.48-13.85Q177.48-13.4 177.33-11.3L177.33-11.3 163.68-11.3Q163.88-7.2 165.1-5.58 166.33-3.95 168.58-3.95L168.58-3.95Q170.13-3.95 171.38-4.48 172.63-5 174.08-6.15L174.08-6.15 176.63-2.65Q173.13 0.75 168.23 0.75L168.23 0.75Q163.03 0.75 160.25-2.85 157.48-6.45 157.48-13L157.48-13Q157.48-19.55 160.13-23.35 162.78-27.15 167.63-27.15L167.63-27.15Q172.28-27.15 174.88-23.78 177.48-20.4 177.48-13.85L177.48-13.85ZM171.48-15.3L171.48-15.65Q171.48-19.4 170.58-21.13 169.68-22.85 167.68-22.85L167.68-22.85Q165.83-22.85 164.85-21.18 163.88-19.5 163.68-15.3L163.68-15.3 171.48-15.3Z" opacity="1" transform="matrix(1,0,0,1,0,0)" fill="black" class="slogan-text-1" id="SvgjsPath4566"></path></svg></g></svg></g></svg></g></svg></g><g transform="matrix(1,0,0,1,157.10426295775522,0)"><svg viewBox="0 0 81.3114740844895 140.1471398863388" height="140.1471398863388" width="81.3114740844895"><g><svg xmlns="http://www.w3.org/2000/svg" xmlnsXlink="http://www.w3.org/1999/xlink" version="1.1" x="0" y="0" viewBox="21.679106830508616 1 56.85827385947762 98" enable-background="new 0 0 100 100" xmlSpace="preserve" height="140.1471398863388" width="81.3114740844895" class="icon-icon-0" data-fill-palette-color="accent" id="SvgjsSvg4565"><g fill="white"><path fill-rule="evenodd" clip-rule="evenodd" d="M30.545 28.822C29.38 36.039 30.875 43.672 37.045 47.863 30.758 19.81 45.756 8.664 59.646 1 43.466 24.046 76.542 24.644 78.423 51.13 80.028 73.71 64.507 91.317 46.639 99 46.845 76.175 24.089 73.067 21.801 54.397 20.905 47.094 25.062 33.766 30.545 28.822" fill="white"></path></g></svg></g></svg></g><g></g></svg></g><defs><mask></mask></defs><mask><g id="SvgjsG4564"><svg viewBox="0 0 395.52 285.55792608010006" height="285.55792608010006" width="395.52"><g><svg viewBox="0 0 395.52 285.55792608010006" height="285.55792608010006" width="395.52"><g transform="matrix(1,0,0,1,0,145.41078619376125)"><svg viewBox="0 0 395.52 140.1471398863388" height="140.1471398863388" width="395.52"><g id="SvgjsG4563"><svg viewBox="0 0 395.52 140.1471398863388" height="140.1471398863388" width="395.52" id="SvgjsSvg4562"><g><svg viewBox="0 0 395.52 73.16724062438806" height="73.16724062438806" width="395.52"><g transform="matrix(1,0,0,1,0,0)"><svg width="395.52" viewBox="0.7559499999999995 -20.233510000000003 275.92079 51.042570602304" height="73.16724062438806" data-palette-color="url(#8a23e112-43fa-4e14-8aa0-9208bfa5ddfa)"><path d="M5.029 14.578l-4.273-1.13 8.91-33.682 4.273 1.131zM41.752 13.468v0c-0.382 1.759-1.162 3.196-2.339 4.312-1.177 1.116-2.604 1.877-4.282 2.283-1.684 0.405-3.435 0.41-5.253 0.015v0l-16.163-3.511 7.396-34.046 16.925 3.677c1.603 0.348 2.895 1.072 3.877 2.173 0.982 1.1 1.642 2.383 1.979 3.847 0.332 1.457 0.341 2.905 0.028 4.345v0c-0.361 1.661-1.123 3.13-2.287 4.405-1.163 1.269-2.602 2.085-4.319 2.449v0c1.823 0.996 3.133 2.393 3.93 4.19 0.797 1.797 0.966 3.751 0.508 5.861zM37.559 11.759v0c0.229-1.055 0.21-2.083-0.057-3.082-0.269-0.993-0.738-1.849-1.407-2.567-0.664-0.711-1.508-1.177-2.531-1.399v0l-12.176-2.645-2.541 11.697 11.844 2.573c1.055 0.229 2.065 0.166 3.03-0.192 0.966-0.363 1.792-0.931 2.478-1.702 0.685-0.765 1.138-1.66 1.36-2.683zM35.738-10.382l-11.121-2.416-2.469 11.365 10.837 2.354c1.023 0.222 1.981 0.161 2.875-0.184 0.892-0.338 1.664-0.89 2.314-1.656 0.649-0.759 1.085-1.651 1.308-2.673v0c0.236-1.088 0.232-2.102-0.015-3.043-0.246-0.94-0.688-1.749-1.325-2.426-0.645-0.672-1.447-1.112-2.404-1.321zM67.193 6.192l-3.983-15.821 4.134 0.548 2.975 12.621 6.214-11.401 4.144 0.55-7.982 14.233 4.046 15.043 15.581-27.933 4.768 0.633-19.027 32.621-3.797-0.504-4.697-17.208-9.072 15.38-3.787-0.502-9.82-36.449 4.719 0.626 7.814 31.038zM121.004 30.681l-12.062-0.435 1.256-34.817 12.062 0.435c3.731 0.135 6.818 1.023 9.26 2.665 2.442 1.642 4.239 3.802 5.39 6.479 1.144 2.676 1.659 5.617 1.543 8.821v0c-0.127 3.531-0.924 6.581-2.391 9.15-1.467 2.562-3.485 4.517-6.056 5.865-2.57 1.348-5.571 1.96-9.002 1.837zM133.996 13.668v0c0.094-2.612-0.305-4.951-1.198-7.018-0.893-2.06-2.235-3.696-4.026-4.908-1.784-1.205-4.002-1.855-6.654-1.951v0l-7.645-0.276-0.972 26.963 7.645 0.276c2.685 0.097 4.962-0.418 6.83-1.545 1.875-1.126 3.323-2.692 4.342-4.697 1.026-2.011 1.586-4.292 1.678-6.844zM159.073 30.799v0c-2.452 0.082-4.691-0.337-6.716-1.257-2.025-0.913-3.795-2.188-5.31-3.825-1.508-1.631-2.691-3.489-3.547-5.575-0.856-2.079-1.322-4.232-1.396-6.458v0c-0.077-2.319 0.269-4.548 1.038-6.688 0.763-2.133 1.86-4.051 3.29-5.752 1.431-1.702 3.13-3.069 5.096-4.102 1.96-1.032 4.116-1.588 6.469-1.667v0c2.452-0.082 4.691 0.354 6.717 1.307 2.033 0.946 3.797 2.245 5.292 3.896 1.496 1.651 2.668 3.51 3.518 5.576 0.856 2.066 1.32 4.195 1.393 6.388v0c0.077 2.319-0.259 4.548-1.008 6.687-0.743 2.133-1.83 4.05-3.26 5.752-1.437 1.702-3.137 3.059-5.097 4.071-1.96 1.019-4.12 1.568-6.479 1.647zM146.571 13.536v0c0.059 1.766 0.402 3.465 1.031 5.098 0.628 1.633 1.486 3.069 2.574 4.307 1.088 1.238 2.382 2.209 3.88 2.912 1.491 0.704 3.136 1.026 4.934 0.967v0c1.866-0.062 3.522-0.511 4.968-1.347 1.447-0.829 2.661-1.916 3.644-3.263 0.989-1.34 1.727-2.836 2.212-4.486 0.485-1.657 0.7-3.318 0.644-4.984v0c-0.059-1.766-0.402-3.455-1.029-5.068-0.628-1.62-1.496-3.059-2.605-4.316-1.102-1.251-2.392-2.222-3.869-2.913-1.484-0.684-3.108-0.997-4.874-0.938v0c-1.859 0.062-3.512 0.501-4.959 1.316-1.447 0.815-2.665 1.896-3.654 3.243-0.983 1.34-1.727 2.829-2.233 4.467-0.499 1.638-0.72 3.306-0.664 5.005zM155.681-9.16l-3.628 0.121-0.167-4.998 3.628-0.12zM163.627-9.425l-3.628 0.121-0.167-4.997 3.628-0.121zM207.729 26.832l-23.528-24.49 2.63 26.56-4.398 0.436-3.434-34.671 3.711-0.367 23.881 24.997-2.679-27.047 4.388-0.435 3.43 34.621zM224.507 20.343l18.972-3.139 0.641 3.878-23.333 3.86-5.686-34.373 22.898-3.788 0.642 3.877-18.538 3.067 1.841 11.129 16.121-2.668 0.601 3.631-16.121 2.667zM255.042 18.576l-4.311 0.974-7.679-33.983 14.554-3.289c1.496-0.338 2.938-0.336 4.327 0.007 1.382 0.337 2.655 0.921 3.82 1.751 1.157 0.825 2.135 1.828 2.935 3.007 0.806 1.178 1.36 2.437 1.663 3.776v0c0.353 1.561 0.392 3.11 0.118 4.649-0.274 1.538-0.833 2.922-1.677 4.151-0.843 1.229-1.94 2.198-3.29 2.907v0l11.175 11.162-4.887 1.104-10.512-10.451-8.993 2.032zM248.23-11.574l3.189 14.114 10.291-2.325c1.177-0.266 2.131-0.823 2.861-1.672 0.729-0.855 1.219-1.881 1.468-3.079 0.249-1.198 0.233-2.417-0.048-3.659v0c-0.288-1.275-0.839-2.384-1.654-3.328-0.813-0.937-1.757-1.619-2.83-2.046-1.067-0.429-2.16-0.517-3.279-0.264v0z" opacity="1" transform="matrix(1,0,0,1,0,0)" fill="black" class="wordmark-text-0" id="SvgjsPath4561"></path></svg></g></svg></g><g transform="matrix(1,0,0,1,124.68625110211829,99.48547216150033)"><svg viewBox="0 0 146.1474977957634 40.661667724838466" height="40.661667724838466" width="146.1474977957634"><g transform="matrix(1,0,0,1,0,0)"><svg width="146.1474977957634" viewBox="3 -37.7 174.48 48.550000000000004" height="40.661667724838466" data-palette-color="#ffffff"><path d="M3-34.55L9.35-34.55 9.35 0 3 0 3-34.55ZM29.4-18.3Q32.75-17.55 34.67-15.63 36.6-13.7 36.6-9.9L36.6-9.9Q36.6-4.9 33.22-2.45 29.85 0 24.05 0L24.05 0 15.35 0 15.35-34.55 22.9-34.55Q28.85-34.55 32.1-32.3 35.35-30.05 35.35-25.75L35.35-25.75Q35.35-22.85 33.72-20.95 32.1-19.05 29.4-18.3L29.4-18.3ZM23.55-29.85L21.7-29.85 21.7-20.3 23.85-20.3Q28.9-20.3 28.9-25.2L28.9-25.2Q28.9-27.65 27.62-28.75 26.35-29.85 23.55-29.85L23.55-29.85ZM24.1-4.8Q27-4.8 28.5-6.03 30-7.25 30-10.15L30-10.15Q30-13.05 28.6-14.43 27.2-15.8 24.25-15.8L24.25-15.8 21.7-15.8 21.7-4.8 24.1-4.8ZM66.25-34.55L72.15-34.55 67.3 0 58.95 0 55.25-27.8 51.4 0 43.2 0 38.45-34.55 44.6-34.55 47.8-5.1 51.95-34.55 58.7-34.55 62.75-5.1 66.25-34.55ZM94.44-35.25Q97.44-35.25 99.74-34.2 102.04-33.15 103.99-31.05L103.99-31.05 101.04-27.65Q99.49-29.05 98.02-29.75 96.54-30.45 94.89-30.45L94.89-30.45Q92.99-30.45 91.89-29.28 90.79-28.1 90.79-26.2L90.79-26.2Q90.79-24.3 91.94-23.1 93.09-21.9 96.44-20.6L96.44-20.6Q100.74-18.85 102.77-16.5 104.79-14.15 104.79-9.85L104.79-9.85Q104.79-6.9 103.44-4.48 102.09-2.05 99.56-0.65 97.04 0.75 93.69 0.75L93.69 0.75Q90.24 0.75 87.69-0.48 85.14-1.7 83.04-3.95L83.04-3.95 86.24-7.45Q88.04-5.85 89.69-5 91.34-4.15 93.29-4.15L93.29-4.15Q95.59-4.15 96.86-5.58 98.14-7 98.14-9.45L98.14-9.45Q98.14-11.6 97.02-12.98 95.89-14.35 92.84-15.5L92.84-15.5Q88.24-17.35 86.22-19.75 84.19-22.15 84.19-25.75L84.19-25.75Q84.19-28.5 85.52-30.65 86.84-32.8 89.19-34.02 91.54-35.25 94.44-35.25L94.44-35.25ZM119.94-5L122.09-1.2Q119.64 0.75 116.34 0.75L116.34 0.75Q112.89 0.75 111.09-1.23 109.29-3.2 109.29-6.6L109.29-6.6 109.29-22 106.19-22 106.19-26.45 109.29-26.45 109.29-32.3 115.44-33.05 115.44-26.45 120.44-26.45 119.84-22 115.44-22 115.44-6.6Q115.44-4.2 117.49-4.2L117.49-4.2Q118.14-4.2 118.64-4.38 119.14-4.55 119.94-5L119.94-5ZM143.28-26.45L136.28 0.1Q134.98 4.9 132.09 7.65 129.19 10.4 124.33 10.85L124.33 10.85 123.63 6.5Q126.78 5.85 128.36 4.42 129.94 3 130.84 0L130.84 0 128.53 0 121.83-26.45 128.09-26.45 132.48-4.1 137.19-26.45 143.28-26.45ZM151.78 0.75Q149.08 0.75 147.51-0.93 145.93-2.6 145.93-5.4L145.93-5.4 145.93-37.05 152.08-37.7 152.08-5.65Q152.08-5 152.38-4.6 152.68-4.2 153.28-4.2L153.28-4.2Q153.63-4.2 153.96-4.3 154.28-4.4 154.38-4.4L154.38-4.4 155.58-0.2Q153.88 0.75 151.78 0.75L151.78 0.75ZM177.48-13.85Q177.48-13.4 177.33-11.3L177.33-11.3 163.68-11.3Q163.88-7.2 165.1-5.58 166.33-3.95 168.58-3.95L168.58-3.95Q170.13-3.95 171.38-4.48 172.63-5 174.08-6.15L174.08-6.15 176.63-2.65Q173.13 0.75 168.23 0.75L168.23 0.75Q163.03 0.75 160.25-2.85 157.48-6.45 157.48-13L157.48-13Q157.48-19.55 160.13-23.35 162.78-27.15 167.63-27.15L167.63-27.15Q172.28-27.15 174.88-23.78 177.48-20.4 177.48-13.85L177.48-13.85ZM171.48-15.3L171.48-15.65Q171.48-19.4 170.58-21.13 169.68-22.85 167.68-22.85L167.68-22.85Q165.83-22.85 164.85-21.18 163.88-19.5 163.68-15.3L163.68-15.3 171.48-15.3Z" opacity="1" transform="matrix(1,0,0,1,0,0)" fill="black" class="slogan-text-1" id="SvgjsPath4560"></path></svg></g></svg></g></svg></g></svg></g><g transform="matrix(1,0,0,1,157.10426295775522,0)"><svg viewBox="0 0 81.3114740844895 140.1471398863388" height="140.1471398863388" width="81.3114740844895"><g><svg xmlns="http://www.w3.org/2000/svg" xmlnsXlink="http://www.w3.org/1999/xlink" version="1.1" x="0" y="0" viewBox="21.679106830508616 1 56.85827385947762 98" enable-background="new 0 0 100 100" xmlSpace="preserve" height="140.1471398863388" width="81.3114740844895" class="icon-icon-0" data-fill-palette-color="accent" id="SvgjsSvg4559"><g fill="black"><path fill-rule="evenodd" clip-rule="evenodd" d="M30.545 28.822C29.38 36.039 30.875 43.672 37.045 47.863 30.758 19.81 45.756 8.664 59.646 1 43.466 24.046 76.542 24.644 78.423 51.13 80.028 73.71 64.507 91.317 46.639 99 46.845 76.175 24.089 73.067 21.801 54.397 20.905 47.094 25.062 33.766 30.545 28.822" fill="black"></path></g></svg></g></svg></g><g></g></svg></g><defs><mask></mask></defs></svg><rect width="395.52" height="285.55792608010006" fill="black" stroke="none" visibility="hidden"></rect></g></mask></svg><rect width="395.52" height="285.55792608010006" fill="black" stroke="none" visibility="hidden"></rect></g></mask><linearGradient x1="0" x2="1" y1="0.578" y2="0.595" id="204af433-46e1-4656-8634-7355d4047ec3"><stop stop-color="#6ee2f5" offset="0"></stop><stop stop-color="#6454f0" offset="1"></stop></linearGradient><rect width="395.52" height="285.55792608010006" fill="url(#204af433-46e1-4656-8634-7355d4047ec3)" mask="url(#37d48b3a-59a1-4aad-96ab-999ee7ac7815)" data-fill-palette-color="accent"></rect></svg><rect width="395.52" height="285.55792608010006" fill="none" stroke="none" visibility="hidden"></rect></g></svg></g></svg>